<svg
	class="fixed top-0 -z-10 h-screen w-screen opacity-70"
	id="visual"
	viewBox="0 0 900 900"
	width="900"
	height="900"
	xmlns="http://www.w3.org/2000/svg"
	xmlns:xlink="http://www.w3.org/1999/xlink"
	version="1.1">
	<g>
		<g transform="translate(36 280)" fill="#dbeafe">
			<path
				d="M111.8 -83.1C145.4 -47.1 173.4 -0.5 161.9 31.7C150.4 64 99.2 81.9 57.1 92.1C14.9 102.2 -18.3 104.6 -51.2 93.6C-84.2 82.7 -116.9 58.4 -125.5 26.9C-134.1 -4.6 -118.5 -43.3 -93.6 -77.4C-68.6 -111.5 -34.3 -141 2.4 -142.9C39.1 -144.8 78.2 -119.2 111.8 -83.1Z">
			</path>
		</g>
		<g transform="translate(809 564)" fill="#dcfce7">
			<path
				d="M57.7 -43.1C72 -28 79.1 -4.2 74.5 17.3C69.8 38.7 53.4 57.8 35.7 61.5C18 65.1 -1 53.2 -15 42.2C-29.1 31.2 -38.2 21 -46.9 4.5C-55.6 -11.9 -63.8 -34.7 -55.9 -48.3C-48 -61.9 -24 -66.4 -1.2 -65.5C21.7 -64.6 43.3 -58.2 57.7 -43.1Z">
			</path>
		</g>
		<g transform="translate(741 150)" fill="#fae8ff">
			<path
				d="M92.7 -83.8C109.5 -52.9 105.2 -14.9 97 22.6C88.8 60.1 76.7 97.1 49.5 114.9C22.2 132.7 -20.1 131.3 -53.8 114.1C-87.4 97 -112.2 64.1 -116 31.2C-119.8 -1.7 -102.4 -34.8 -79.5 -67.1C-56.7 -99.4 -28.3 -131 4.8 -134.8C38 -138.7 75.9 -114.7 92.7 -83.8Z">
			</path>
		</g>
		<g transform="translate(192 750)" fill="#f3e8ff">
			<path
				d="M30.8 -29.5C38.7 -14.6 43.2 -1.9 44.9 18.2C46.7 38.3 45.8 65.8 33.3 73.6C20.7 81.3 -3.5 69.4 -26.8 57.5C-50.2 45.5 -72.7 33.6 -80.2 14.3C-87.8 -5 -80.5 -31.6 -64.6 -48.4C-48.8 -65.1 -24.4 -71.8 -6.5 -66.7C11.4 -61.5 22.9 -44.4 30.8 -29.5Z">
			</path>
		</g>
	</g>
</svg>
